Coordinates
version=1
nRows=17
nColumns=24
inDegrees=yes

Units are S.I. units (second, meters, Newtons, ...)
If the header above contains a line with 'inDegrees', this indicates whether rotational values are in degrees (yes) or radians (no).

endheader
time	pelvis_tilt	pelvis_list	pelvis_rotation	pelvis_tx	pelvis_ty	pelvis_tz	hip_flexion_r	hip_adduction_r	hip_rotation_r	knee_angle_r	ankle_angle_r	subtalar_angle_r	mtp_angle_r	hip_flexion_l	hip_adduction_l	hip_rotation_l	knee_angle_l	ankle_angle_l	subtalar_angle_l	mtp_angle_l	lumbar_extension	lumbar_bending	lumbar_rotation
      5.43500000	      8.33223950	      2.52436736	   -180.83910556	      0.27203642	      0.58578313	     -1.21179151	     63.34849909	    -28.52951098	    -13.97782700	   -100.19568612	     39.66973056	     12.36454159	      0.00000000	     66.55303752	    -33.52286574	     -6.73818811	   -100.29535480	     40.51348368	     19.40153799	      0.00000000	    -10.32391149	      2.19997843	      1.44825033
      5.44000000	      8.32813779	      2.50498136	   -180.81619459	      0.27203300	      0.58488174	     -1.21182259	     63.45286426	    -28.58392864	    -13.90654624	   -100.36786907	     39.73967037	     12.38971084	      0.00000000	     66.65949721	    -33.54660585	     -6.70656412	   -100.46564910	     40.58457801	     19.42906304	      0.00000000	    -10.35792588	      2.20816325	      1.36412138
      5.44500000	      8.33523914	      2.48295695	   -180.79333624	      0.27206183	      0.58398356	     -1.21182941	     63.54715098	    -28.62508888	    -13.69104943	   -100.48803497	     40.03455959	     13.02181880	      0.00000000	     66.77185293	    -33.55828452	     -6.67262665	   -100.57605116	     40.74571364	     19.54131465	      0.00000000	    -10.37726616	      2.21876055	      1.32319307
      5.45000000	      8.31660713	      2.45843578	   -180.78289116	      0.27210774	      0.58313857	     -1.21182388	     63.69083611	    -28.71501164	    -13.76568430	   -100.73396787	     39.87304919	     12.44162794	      0.00000000	     66.85996683	    -33.58286708	     -6.65207920	   -100.75512904	     40.81449894	     19.56256129	      0.00000000	    -10.40708328	      2.18055758	      1.34984123
      5.45500000	      8.35947742	      2.49068553	   -180.82201742	      0.27217670	      0.58226799	     -1.21183789	     63.80908137	    -28.65720784	    -13.51596013	   -100.81114889	     40.22309947	     13.26850327	      0.00000000	     67.03891123	    -33.66707288	     -6.59704552	   -100.90739928	     40.80805291	     19.47590230	      0.00000000	    -10.37243963	      2.22072908	      1.44605446
      5.46000000	      8.29163135	      2.47389751	   -180.79967928	      0.27212978	      0.58153195	     -1.21186780	     63.88975497	    -28.74888523	    -13.67198574	   -101.08319314	     39.97655462	     12.37898431	      0.00000000	     67.07211777	    -33.69568647	     -6.54676788	   -101.09205984	     40.87951567	     19.56320106	      0.00000000	    -10.46833265	      2.20389089	      1.42869710
      5.46500000	      8.34224899	      2.46168803	   -180.76728928	      0.27222962	      0.58074940	     -1.21185697	     63.99269749	    -28.76534519	    -13.39912175	   -101.12853695	     40.33658085	     13.32031199	      0.00000000	     67.22967655	    -33.68422072	     -6.51881014	   -101.18743511	     40.92380327	     19.57724891	      0.00000000	    -10.44169282	      2.21460316	      1.37937110
      5.47000000	      8.28519799	      2.42782073	   -180.72580859	      0.27220056	      0.58009090	     -1.21193132	     64.06266912	    -28.87397619	    -13.55130490	   -101.36456951	     40.10990406	     12.48426717	      0.00000000	     67.25154048	    -33.69558791	     -6.49668732	   -101.37882776	     40.94874360	     19.67401497	      0.00000000	    -10.52564504	      2.18794745	      1.31083221
      5.47500000	      8.31634106	      2.43602911	   -180.71060270	      0.27231732	      0.57940260	     -1.21196540	     64.13936682	    -28.85795949	    -13.30266522	   -101.40366200	     40.44759703	     13.35846049	      0.00000000	     67.40302438	    -33.70824945	     -6.42677175	   -101.49765958	     40.96740515	     19.69076438	      0.00000000	    -10.50967900	      2.19000632	      1.36757230
      5.48000000	      8.26878519	      2.42228616	   -180.69579316	      0.27231124	      0.57878301	     -1.21199634	     64.22954038	    -28.93305716	    -13.46549261	   -101.64309122	     40.18391619	     12.47732139	      0.00000000	     67.44098922	    -33.73403711	     -6.39959901	   -101.62977111	     41.00987818	     19.71022272	      0.00000000	    -10.58302161	      2.18081988	      1.34796624
      5.48500000	      8.29252348	      2.42023393	   -180.71629210	      0.27238795	      0.57811801	     -1.21198258	     64.31453730	    -28.90416504	    -13.18355680	   -101.68321545	     40.54764259	     13.37849266	      0.00000000	     67.56041973	    -33.76590653	     -6.35618532	   -101.76065848	     41.03577544	     19.69969529	      0.00000000	    -10.57073719	      2.19488469	      1.40978163
      5.49000000	      8.24986979	      2.41384599	   -180.71196931	      0.27241487	      0.57754908	     -1.21202631	     64.40160749	    -28.96490630	    -13.36661016	   -101.90983039	     40.24403458	     12.42757800	      0.00000000	     67.60890406	    -33.79434920	     -6.30553499	   -101.89677633	     41.06556204	     19.75113096	      0.00000000	    -10.64795370	      2.20234456	      1.38538077
      5.49500000	      8.27937725	      2.38984362	   -180.69479214	      0.27253846	      0.57691159	     -1.21202681	     64.47979440	    -28.96947814	    -13.07510972	   -101.92509148	     40.63523117	     13.37424869	      0.00000000	     67.71952071	    -33.76940516	     -6.29104773	   -101.97721214	     41.06104436	     19.69518093	      0.00000000	    -10.64404161	      2.20234908	      1.34430934
      5.50000000	      8.22922158	      2.38288528	   -180.66140853	      0.27250946	      0.57642913	     -1.21205852	     64.53353143	    -29.05471375	    -13.27098287	   -102.13346944	     40.33413476	     12.45677394	      0.00000000	     67.73554683	    -33.76812090	     -6.26281061	   -102.02569657	     41.15910024	     19.69676750	      0.00000000	    -10.70126498	      2.19728251	      1.35470653
      5.50500000	      8.25700560	      2.39747299	   -180.65187871	      0.27261324	      0.57589311	     -1.21208708	     64.57983606	    -29.01668149	    -13.03012857	   -102.13210120	     40.71005767	     13.34335549	      0.00000000	     67.86921828	    -33.77587074	     -6.18519910	   -102.16513533	     41.12288908	     19.68410577	      0.00000000	    -10.70286038	      2.22206292	      1.35737265
      5.51000000	      8.20916267	      2.37801696	   -180.63431158	      0.27264450	      0.57545313	     -1.21212606	     64.65653330	    -29.08545896	    -13.20056701	   -102.34208772	     40.40550321	     12.42499923	      0.00000000	     67.88113894	    -33.77085236	     -6.15968580	   -102.25584628	     41.17305857	     19.71586764	      0.00000000	    -10.77351967	      2.20034490	      1.35611176
      5.51500000	      8.22032267	      2.38979669	   -180.61829448	      0.27273440	      0.57497439	     -1.21219883	     64.67936524	    -29.05641252	    -12.96449524	   -102.34107680	     40.79385868	     13.31185735	      0.00000000	     67.98395633	    -33.77873485	     -6.10589609	   -102.29862181	     41.23041823	     19.65988661	      0.00000000	    -10.77440416	      2.21293865	      1.36729051
